<?xml version="1.0" encoding="UTF-8"?>
<svg width="531px" height="437px" viewBox="0 0 531 437" xmlns="http://www.w3.org/2000/svg" xmlns:xlink="http://www.w3.org/1999/xlink" version="1.1">
 <!-- Generated by Pixelmator Pro 1.1.1 -->
 <path id="path" d="M176.8 404.3 L226.6 386.1 195 386.1 176.8 404.3 Z M226.6 417.8 L208.4 436 208.4 404.3 176.8 404.3 195 386.1 226.6 386.1 226.6 417.8 Z M226.3 386.1 L276.1 367.9 244.5 367.9 226.3 386.1 Z M276.2 399.5 L258 417.7 258 386 226.4 386 244.6 367.8 276.2 367.8 276.2 399.5 Z M375.8 331.4 L425.6 313.2 394 313.2 375.8 331.4 Z M425.7 344.8 L407.5 363 407.5 331.3 375.9 331.3 394.1 313.1 425.7 313.1 425.7 344.8 Z M244.6 336.2 L294.4 318 262.8 318 244.6 336.2 Z M294.4 349.6 L276.2 367.8 276.2 336.1 244.6 336.1 262.8 317.9 294.4 317.9 294.4 349.6 294.4 349.6 Z M194.7 354.4 L244.5 336.2 213 336.2 194.7 354.4 Z M244.6 367.8 L226.4 386 226.4 354.3 194.8 354.3 213 336.1 244.6 336.1 244.6 367.8 Z M144.9 372.6 L194.7 354.4 163.1 354.4 144.9 372.6 Z M194.7 386.1 L176.5 404.3 176.5 372.6 144.9 372.6 163.1 354.4 194.7 354.4 194.7 386.1 Z M443.9 263.3 L493.7 245.1 462.1 245.1 443.9 263.3 Z M493.7 276.7 L475.5 294.9 475.5 263.2 443.9 263.2 462.1 245 493.7 245 493.7 276.7 Z M294.4 317.9 L344.2 299.7 312.6 299.7 294.4 317.9 Z M344.2 331.4 L326 349.6 326 317.9 294.4 317.9 312.6 299.7 344.2 299.7 344.2 331.4 Z M344.2 299.7 L394 281.5 362.4 281.5 344.2 299.7 Z M394.1 313.2 L375.9 331.4 375.9 299.7 344.3 299.7 362.5 281.5 394.1 281.5 394.1 313.2 Z M462.1 213.3 L511.9 195.1 480.3 195.1 462.1 213.3 Z M512 226.8 L493.7 245 493.7 213.3 462.1 213.3 480.3 195.1 512 195.1 512 226.8 Z M213 304.5 L262.8 286.3 231.2 286.3 213 304.5 Z M262.8 317.9 L244.6 336.1 244.6 304.4 213 304.4 231.2 286.2 262.8 286.2 262.8 317.9 Z M63.5 359.2 L113.3 341 81.7 341 63.5 359.2 Z M113.3 372.6 L95.1 390.8 95.1 359.1 63.5 359.1 81.7 340.9 113.3 340.9 113.3 372.6 113.3 372.6 Z M163.1 322.7 L212.9 304.5 181.3 304.5 163.1 322.7 Z M213 336.2 L194.8 354.4 194.8 322.7 163.2 322.7 181.4 304.5 213 304.5 213 336.2 Z M113.3 340.9 L163.1 322.7 131.5 322.7 113.3 340.9 Z M163.1 354.4 L144.9 372.6 144.9 340.9 113.3 340.9 131.5 322.7 163.1 322.7 163.1 354.4 Z M412.3 231.6 L462.1 213.4 430.5 213.4 412.3 231.6 Z M462.1 245 L443.9 263.2 443.9 231.5 412.3 231.5 430.5 213.3 462.1 213.3 462.1 245 Z M262.8 286.3 L312.6 268.1 281 268.1 262.8 286.3 Z M312.6 299.7 L294.4 317.9 294.4 286.2 262.8 286.2 281 268 312.6 268 312.6 299.7 Z M362.5 249.8 L412.3 231.6 380.7 231.6 362.5 249.8 Z M412.3 263.3 L394.1 281.5 394.1 249.8 362.5 249.8 380.7 231.6 412.3 231.6 412.3 263.3 Z M312.6 268 L362.4 249.8 330.8 249.8 312.6 268 Z M362.5 281.5 L344.3 299.7 344.3 268 312.7 268 330.9 249.8 362.5 249.8 362.5 281.5 Z M480.4 163.4 L530.2 145.2 498.6 145.2 480.4 163.4 Z M530.2 176.9 L512 195.1 512 163.4 480.4 163.4 498.6 145.2 530.2 145.2 530.2 176.9 530.2 176.9 Z M430.5 181.7 L480.3 163.5 448.7 163.5 430.5 181.7 Z M480.4 195.1 L462.2 213.3 462.2 181.6 430.6 181.6 448.8 163.4 480.4 163.4 480.4 195.1 Z M181.4 272.8 L231.2 254.6 199.6 254.6 181.4 272.8 Z M231.2 286.3 L213 304.5 213 272.8 181.4 272.8 199.6 254.6 231.2 254.6 231.2 286.3 Z M31.9 327.5 L81.7 309.3 50.1 309.3 31.9 327.5 Z M81.7 340.9 L63.5 359.1 63.5 327.4 31.9 327.4 50.1 309.2 81.7 309.2 81.7 340.9 81.7 340.9 Z M131.5 291 L181.3 272.8 149.7 272.8 131.5 291 Z M181.4 304.5 L163.2 322.7 163.2 291 131.6 291 149.8 272.8 181.4 272.8 181.4 304.5 Z M81.7 309.3 L131.5 291.1 99.9 291.1 81.7 309.3 Z M131.5 322.7 L113.3 340.9 113.3 309.2 81.7 309.2 99.9 291 131.5 291 131.5 322.7 Z M380.7 199.9 L430.5 181.7 398.9 181.7 380.7 199.9 Z M430.5 213.3 L412.3 231.5 412.3 199.8 380.7 199.8 398.9 181.6 430.5 181.6 430.5 213.3 Z M231.2 254.6 L281 236.4 249.4 236.4 231.2 254.6 Z M281 268 L262.8 286.2 262.8 254.5 231.2 254.5 249.4 236.3 281 236.3 281 268 Z M281 236.3 L330.8 218.1 299.2 218.1 281 236.3 Z M330.9 249.8 L312.6 268 312.6 236.3 281 236.3 299.2 218.1 330.8 218.1 330.8 249.8 330.9 249.8 Z M448.7 131.8 L498.5 113.6 467 113.6 448.7 131.8 Z M498.6 145.2 L480.4 163.4 480.4 131.7 448.8 131.7 467 113.5 498.6 113.5 498.6 145.2 Z M398.9 150 L448.7 131.8 417.1 131.8 398.9 150 Z M448.7 163.4 L430.5 181.6 430.5 150 398.9 150 417.1 131.8 448.7 131.8 448.7 163.4 Z M149.7 241.1 L199.5 222.9 168 222.9 149.7 241.1 Z M199.6 254.6 L181.4 272.8 181.4 241.1 149.8 241.1 168 222.9 199.6 222.9 199.6 254.6 Z M0.3 295.8 L50.1 277.6 18.5 277.6 0.3 295.8 Z M50.1 309.3 L31.9 327.5 31.9 295.8 0.3 295.8 18.5 277.6 50.1 277.6 50.1 309.3 Z M99.9 259.3 L149.7 241.1 118.1 241.1 99.9 259.3 Z M149.7 272.8 L131.5 291 131.5 259.3 99.9 259.3 118.1 241.1 149.7 241.1 149.7 272.8 149.7 272.8 Z M349.1 168.2 L398.9 150 367.3 150 349.1 168.2 Z M398.9 181.7 L380.7 199.9 380.7 168.2 349.1 168.2 367.3 150 398.9 150 398.9 181.7 Z M299.2 186.4 L349 168.2 317.4 168.2 299.2 186.4 Z M349.1 199.9 L330.9 218.1 330.9 186.4 299.3 186.4 317.5 168.2 349.1 168.2 349.1 199.9 Z M249.4 204.7 L299.2 186.5 267.6 186.5 249.4 204.7 Z M299.2 218.1 L281 236.3 281 204.6 249.4 204.6 267.6 186.4 299.2 186.4 299.2 218.1 299.2 218.1 Z M417.1 100.1 L467 81.8 435.4 81.8 417.1 100.1 Z M467 113.5 L448.8 131.7 448.8 100 417.2 100 435.4 81.8 467 81.8 467 113.5 Z M367.3 118.3 L417.1 100.1 385.5 100.1 367.3 118.3 Z M417.1 131.8 L398.9 150 398.9 118.3 367.3 118.3 385.5 100.1 417.1 100.1 417.1 131.8 417.1 131.8 Z M317.5 136.5 L367.3 118.3 335.7 118.3 317.5 136.5 Z M367.3 150 L349.1 168.2 349.1 136.5 317.5 136.5 335.7 118.3 367.3 118.3 367.3 150 Z M267.6 154.8 L317.4 136.6 285.8 136.6 267.6 154.8 Z M317.5 168.2 L299.3 186.4 299.3 154.7 267.7 154.7 285.9 136.5 317.5 136.5 317.5 168.2 Z M217.8 173 L267.6 154.8 236 154.8 217.8 173 Z M267.6 186.4 L249.4 204.6 249.4 173 217.8 173 236 154.8 267.6 154.8 267.6 186.4 Z M335.7 86.6 L385.5 68.4 353.9 68.4 335.7 86.6 Z M385.5 100.1 L367.3 118.3 367.3 86.6 335.7 86.6 353.9 68.4 385.5 68.4 385.5 100.1 Z M285.9 104.8 L335.7 86.6 304.1 86.6 285.9 104.8 Z M335.7 118.3 L317.5 136.5 317.5 104.8 285.9 104.8 304.1 86.6 335.7 86.6 335.7 118.3 Z M236 123.1 L285.8 104.9 254.2 104.9 236 123.1 Z M285.9 136.5 L267.7 154.7 267.7 123 236 123 254.2 104.8 285.8 104.8 285.8 136.5 285.9 136.5 Z M186.2 141.3 L236 123.1 204.4 123.1 186.2 141.3 Z M236 154.8 L217.8 173 217.8 141.3 186.2 141.3 204.4 123.1 236 123.1 236 154.8 Z M403.8 18.5 L453.6 0.3 422 0.3 403.8 18.5 Z M453.6 31.9 L435.4 50.1 435.4 18.5 403.8 18.5 422 0.3 453.6 0.3 453.6 31.9 Z M304.1 54.9 L353.9 36.7 322.3 36.7 304.1 54.9 Z M353.9 68.4 L335.7 86.6 335.7 54.9 304.1 54.9 322.3 36.7 353.9 36.7 353.9 68.4 Z M254.3 73.2 L304.1 55 272.5 55 254.3 73.2 Z M304.1 86.6 L285.9 104.8 285.9 73.2 254.3 73.2 272.5 55 304.1 55 304.1 86.6 304.1 86.6 Z" fill="none" stroke="#49494d" stroke-width="0.5" stroke-opacity="1" stroke-linejoin="round"/>
</svg>
